<svg width="24" height="25" viewBox="0 0 24 25" fill="none" xmlns="http://www.w3.org/2000/svg">
<path fill-rule="evenodd" clip-rule="evenodd" d="M17.2038 11.2795L18.9998 9.48346C19.545 8.93821 19.8176 8.66559 19.9634 8.37149C20.2407 7.81194 20.2407 7.15498 19.9634 6.59543C19.8176 6.30134 19.545 6.02871 18.9998 5.48346C18.4545 4.93821 18.1819 4.66559 17.8878 4.51985C17.3282 4.24257 16.6713 4.24257 16.1117 4.51985C15.8176 4.66559 15.545 4.93821 14.9998 5.48346L13.1811 7.30212C14.145 8.95272 15.5311 10.3283 17.2038 11.2795ZM11.7267 8.75658L4.85615 15.6271C4.43109 16.0521 4.21856 16.2647 4.07883 16.5258C3.93909 16.7869 3.88015 17.0816 3.76226 17.671L3.14686 20.748C3.08034 21.0806 3.04708 21.2469 3.14168 21.3416C3.23629 21.4362 3.4026 21.4029 3.73521 21.3364L6.81219 20.721C7.40164 20.6031 7.69637 20.5441 7.95746 20.4044C8.21856 20.2647 8.43109 20.0521 8.85615 19.6271L15.7456 12.7377C14.1239 11.722 12.7522 10.3597 11.7267 8.75658Z" fill="#446269"/>
</svg>
