<svg width="33" height="33" viewBox="0 0 33 33" fill="none" xmlns="http://www.w3.org/2000/svg">
<path fill-rule="evenodd" clip-rule="evenodd" d="M28.4023 16.4023C28.4023 23.0298 23.0298 28.4023 16.4023 28.4023C9.77493 28.4023 4.40234 23.0298 4.40234 16.4023C4.40234 9.77493 9.77493 4.40234 16.4023 4.40234C23.0298 4.40234 28.4023 9.77493 28.4023 16.4023ZM17.7357 11.069C17.7357 11.8054 17.1387 12.4023 16.4023 12.4023C15.666 12.4023 15.069 11.8054 15.069 11.069C15.069 10.3326 15.666 9.73568 16.4023 9.73568C17.1387 9.73568 17.7357 10.3326 17.7357 11.069ZM17.4023 23.069V15.069H15.4023V23.069H17.4023Z" fill="#011F26"/>
</svg>
