<svg width="24" height="25" viewBox="0 0 24 25" fill="none" xmlns="http://www.w3.org/2000/svg">
<path fill-rule="evenodd" clip-rule="evenodd" d="M21 12.4835C21 17.454 16.9706 21.4835 12 21.4835C7.02944 21.4835 3 17.454 3 12.4835C3 7.5129 7.02944 3.48346 12 3.48346C16.9706 3.48346 21 7.5129 21 12.4835ZM13 8.48346C13 9.03574 12.5523 9.48346 12 9.48346C11.4477 9.48346 11 9.03574 11 8.48346C11 7.93117 11.4477 7.48346 12 7.48346C12.5523 7.48346 13 7.93117 13 8.48346ZM13 17.4835V11.4835H11V17.4835H13Z" fill="#446269"/>
</svg>
