<svg width="17" height="17" viewBox="0 0 17 17" fill="none" xmlns="http://www.w3.org/2000/svg">
<path fill-rule="evenodd" clip-rule="evenodd" d="M3.2939 4.3885C2.89355 4.78884 2.89355 5.43319 2.89355 6.72187V10.5878C2.89355 11.8765 2.89355 12.5208 3.2939 12.9212C3.69424 13.3215 4.33858 13.3215 5.62727 13.3215H12.1598C13.4485 13.3215 14.0929 13.3215 14.4932 12.9212C14.8936 12.5208 14.8936 11.8765 14.8936 10.5878V6.72187C14.8936 5.43319 14.8936 4.78884 14.4932 4.3885C14.0929 3.98816 13.4485 3.98816 12.1598 3.98816H5.62727C4.33858 3.98816 3.69424 3.98816 3.2939 4.3885ZM5.14628 6.27572C4.93691 6.13614 4.65403 6.19272 4.51445 6.40209C4.37487 6.61146 4.43144 6.89434 4.64081 7.03392L8.38808 9.5321C8.69417 9.73615 9.09292 9.73615 9.39901 9.5321L13.1463 7.03392C13.3556 6.89434 13.4122 6.61146 13.2726 6.40209C13.1331 6.19272 12.8502 6.13614 12.6408 6.27572L8.89354 8.7739L5.14628 6.27572Z" fill="#011F26"/>
</svg>
