<svg width="22" height="22" viewBox="0 0 22 22" fill="none" xmlns="http://www.w3.org/2000/svg">
<path d="M5.14551 9.49786C5.14551 7.61225 5.14551 6.66944 5.73129 6.08365C6.31708 5.49786 7.25989 5.49786 9.14551 5.49786H11.1734C12.0946 5.49786 12.5553 5.49786 12.9584 5.68668C13.3616 5.87551 13.6565 6.22938 14.2462 6.93713L15.3025 8.20469C16.3229 9.42911 16.8331 10.0413 16.8331 10.7654C16.8331 11.4895 16.3229 12.1017 15.3025 13.3262L14.2462 14.5937C13.6565 15.3015 13.3616 15.6553 12.9584 15.8442C12.5553 16.033 12.0946 16.033 11.1734 16.033H9.14551C7.25989 16.033 6.31708 16.033 5.73129 15.4472C5.14551 14.8614 5.14551 13.9186 5.14551 12.033V9.49786Z" fill="#011F26"/>
</svg>
