<svg width="24" height="24" viewBox="0 0 24 24" fill="none" xmlns="http://www.w3.org/2000/svg">
<path fill-rule="evenodd" clip-rule="evenodd" d="M24 12C24 18.6274 18.6274 24 12 24C5.37258 24 0 18.6274 0 12C0 5.37258 5.37258 0 12 0C18.6274 0 24 5.37258 24 12ZM16.9428 16.9428C16.4221 17.4635 15.5779 17.4635 15.0572 16.9428L12 13.8856L8.94281 16.9428C8.42211 17.4635 7.57789 17.4635 7.05719 16.9428C6.53649 16.4221 6.53649 15.5779 7.05719 15.0572L10.1144 12L7.05719 8.94281C6.53649 8.42211 6.53649 7.57789 7.05719 7.05719C7.57789 6.53649 8.42211 6.53649 8.94281 7.05719L12 10.1144L15.0572 7.05719C15.5779 6.53649 16.4221 6.53649 16.9428 7.05719C17.4635 7.57789 17.4635 8.42211 16.9428 8.94281L13.8856 12L16.9428 15.0572C17.4635 15.5779 17.4635 16.4221 16.9428 16.9428Z" fill="#CF1547"/>
</svg>
