<svg width="24" height="24" viewBox="0 0 24 24" fill="none" xmlns="http://www.w3.org/2000/svg">
<path fill-rule="evenodd" clip-rule="evenodd" d="M12 24C18.6274 24 24 18.6274 24 12C24 5.37258 18.6274 0 12 0C5.37258 0 0 5.37258 0 12C0 18.6274 5.37258 24 12 24ZM18.3576 8.85358C18.829 8.28788 18.7526 7.44712 18.1869 6.9757C17.6212 6.50429 16.7805 6.58072 16.309 7.14642L11.5118 12.9031C11.0495 13.4579 10.7896 13.765 10.5821 13.9538L10.5742 13.9609L10.5656 13.9545C10.3419 13.7853 10.0553 13.503 9.54466 12.9924L7.60948 11.0572C7.08878 10.5365 6.24456 10.5365 5.72386 11.0572C5.20316 11.5779 5.20316 12.4221 5.72386 12.9428L7.65905 14.878L7.71348 14.9324C8.1488 15.3679 8.56759 15.7869 8.95725 16.0815C9.39374 16.4116 9.96536 16.7219 10.6979 16.6887C11.4305 16.6555 11.9716 16.2946 12.3764 15.9264C12.7378 15.5977 13.1169 15.1426 13.5111 14.6695L13.5111 14.6695L13.5604 14.6103L18.3576 8.85358Z" fill="#1B923C"/>
</svg>
