<svg width="48" height="49" viewBox="0 0 48 49" fill="none" xmlns="http://www.w3.org/2000/svg">
<path d="M32 40.7087H9.6C9.03995 40.7087 8.75992 40.7087 8.54601 40.5997C8.35785 40.5038 8.20487 40.3508 8.10899 40.1627C8 39.9488 8 39.6687 8 39.1087V11.9087C8 10.7886 8 10.2285 8.21799 9.8007C8.40973 9.42437 8.71569 9.11841 9.09202 8.92667C9.51984 8.70868 10.0799 8.70868 11.2 8.70868H18.6745C19.1637 8.70868 19.4083 8.70868 19.6385 8.76394C19.8425 8.81293 20.0376 8.89374 20.2166 9.0034C20.4184 9.12708 20.5914 9.30003 20.9373 9.64594L23.0627 11.7714C23.4086 12.1173 23.5816 12.2903 23.7834 12.414C23.9624 12.5236 24.1575 12.6044 24.3615 12.6534C24.5917 12.7087 24.8363 12.7087 25.3255 12.7087H34.8C35.9201 12.7087 36.4802 12.7087 36.908 12.9267C37.2843 13.1184 37.5903 13.4244 37.782 13.8007C38 14.2285 38 14.7886 38 15.9087V25.7087" stroke="#011F26" stroke-width="2" stroke-linecap="round" stroke-linejoin="round"/>
<path fill-rule="evenodd" clip-rule="evenodd" d="M13.8911 21.3969C13.6479 21.6767 13.5099 22.0562 13.234 22.8151L8.342 36.2675C7.55405 38.4342 7.16008 39.5176 7.36012 40.3833C7.53514 41.1408 7.99737 41.8007 8.64939 42.224C9.39459 42.7079 10.5474 42.7079 12.853 42.7079H35.7586C36.5661 42.7079 36.9699 42.7079 37.316 42.575C37.6217 42.4576 37.894 42.2669 38.1088 42.0197C38.352 41.7398 38.49 41.3604 38.7659 40.6015L44.8289 23.9289C45.2229 22.8455 45.4199 22.3038 45.3199 21.871C45.2323 21.4922 45.0012 21.1623 44.6752 20.9506C44.3026 20.7087 43.7262 20.7087 42.5734 20.7087H16.2413C15.4338 20.7087 15.03 20.7087 14.6839 20.8416C14.3781 20.959 14.1059 21.1496 13.8911 21.3969ZM19.9999 29.7087C19.4477 29.7087 18.9999 30.1564 18.9999 30.7087C18.9999 31.261 19.4477 31.7087 19.9999 31.7087H33.9999C34.5522 31.7087 34.9999 31.261 34.9999 30.7087C34.9999 30.1564 34.5522 29.7087 33.9999 29.7087H19.9999Z" fill="#446269"/>
</svg>
