<svg width="24" height="24" viewBox="0 0 24 24" fill="none" xmlns="http://www.w3.org/2000/svg">
<path d="M11.2927 14.9161C10.204 14.653 9.347 13.796 9.08386 12.7073L11.2927 14.9161ZM12 9C13.6569 9 15 10.3431 15 12C15 12.2822 14.9612 12.555 14.8887 12.8134L11.3017 9.08148C11.5256 9.02819 11.7593 9 12 9Z" stroke="#011F26" stroke-width="2"/>
<path d="M21 12C21 12 20 4 12 4C9.63348 4 7.87951 4.70005 6.58276 5.68598M3 12C3 12 3.32197 9.42422 5.06209 7.19579" stroke="#011F26" stroke-width="2"/>
<path d="M4 2L20 18" stroke="#011F26" stroke-width="2"/>
</svg>
