<svg width="24" height="25" viewBox="0 0 24 25" fill="none" xmlns="http://www.w3.org/2000/svg">
<path fill-rule="evenodd" clip-rule="evenodd" d="M21 6.48346H3V9.48346C3.58971 9.48346 3.88456 9.48346 4.11952 9.57292C4.48396 9.71168 4.77178 9.9995 4.91054 10.3639C5 10.5989 5 10.8938 5 11.4835V17.3829C5 19.3159 5 20.2824 5.60051 20.8829C6.20103 21.4835 7.16754 21.4835 9.10057 21.4835H14.8994C16.8325 21.4835 17.799 21.4835 18.3995 20.8829C19 20.2824 19 19.3159 19 17.3829V11.4835C19 10.8938 19 10.5989 19.0895 10.3639C19.2282 9.9995 19.516 9.71168 19.8805 9.57292C20.1154 9.48346 20.4103 9.48346 21 9.48346V6.48346ZM10.1834 11.4835C10.1834 11.106 9.87745 10.8 9.5 10.8C9.12256 10.8 8.81658 11.106 8.81658 11.4835V16.4835C8.81658 16.8609 9.12256 17.1669 9.5 17.1669C9.87745 17.1669 10.1834 16.8609 10.1834 16.4835V11.4835ZM15.1834 11.4835C15.1834 11.106 14.8774 10.8 14.5 10.8C14.1226 10.8 13.8166 11.106 13.8166 11.4835V16.4835C13.8166 16.8609 14.1226 17.1669 14.5 17.1669C14.8774 17.1669 15.1834 16.8609 15.1834 16.4835V11.4835Z" fill="#446269"/>
<path d="M10.0681 3.85405C10.1821 3.74773 10.4332 3.65379 10.7825 3.58678C11.1318 3.51978 11.5597 3.48346 12 3.48346C12.4403 3.48346 12.8682 3.51978 13.2175 3.58678C13.5668 3.65379 13.8179 3.74773 13.9319 3.85405" stroke="#446269" stroke-width="1.36686" stroke-linecap="round"/>
</svg>
