<svg width="25" height="25" viewBox="0 0 25 25" fill="none" xmlns="http://www.w3.org/2000/svg">
<path fill-rule="evenodd" clip-rule="evenodd" d="M17.8014 11.1984L19.5974 9.40235C20.1427 8.8571 20.4153 8.58447 20.561 8.29038C20.8383 7.73082 20.8383 7.07387 20.561 6.51432C20.4153 6.22022 20.1427 5.9476 19.5974 5.40235C19.0522 4.8571 18.7796 4.58447 18.4855 4.43874C17.9259 4.16145 17.269 4.16145 16.7094 4.43874C16.4153 4.58447 16.1427 4.8571 15.5974 5.40235L13.7788 7.221C14.7426 8.8716 16.1288 10.2472 17.8014 11.1984ZM12.3243 8.67546L5.45381 15.546C5.02875 15.971 4.81622 16.1836 4.67648 16.4447C4.53675 16.7058 4.4778 17.0005 4.35991 17.5899L3.74452 20.6669C3.67799 20.9995 3.64473 21.1658 3.73934 21.2604C3.83395 21.355 4.00025 21.3218 4.33286 21.2553L7.40984 20.6399C7.9993 20.522 8.29402 20.463 8.55512 20.3233C8.81622 20.1836 9.02875 19.971 9.45381 19.546L16.3432 12.6566C14.7215 11.6409 13.3499 10.2786 12.3243 8.67546Z" fill="#011F26"/>
</svg>
