<svg width="32" height="32" viewBox="0 0 32 32" fill="none" xmlns="http://www.w3.org/2000/svg">
<path fill-rule="evenodd" clip-rule="evenodd" d="M6.47214 10.6666C5.10681 10.6666 4 11.7735 4 13.1388V22.5661C4 24.4991 4 25.4656 4.60051 26.0661C5.20103 26.6666 6.16754 26.6666 8.10057 26.6666H23.8994C25.8325 26.6666 26.799 26.6666 27.3995 26.0661C28 25.4656 28 24.4991 28 22.5661V13.1388C28 11.7735 26.8932 10.6666 25.5279 10.6666C24.5915 10.6666 23.7355 10.1376 23.3167 9.30008L22.0889 6.84447C21.7213 6.10922 21.5375 5.74159 21.2072 5.53745C20.8769 5.33331 20.4658 5.33331 19.6438 5.33331H12.3562C11.5342 5.33331 11.1231 5.33331 10.7928 5.53745C10.4625 5.74159 10.2787 6.10922 9.91109 6.84447L8.68328 9.30008C8.26452 10.1376 7.40851 10.6666 6.47214 10.6666ZM19.9665 17.3333C19.9665 19.5239 18.1906 21.2998 16 21.2998C13.8094 21.2998 12.0335 19.5239 12.0335 17.3333C12.0335 15.1427 13.8094 13.3668 16 13.3668C18.1906 13.3668 19.9665 15.1427 19.9665 17.3333ZM21.3333 17.3333C21.3333 20.2788 18.9455 22.6666 16 22.6666C13.0545 22.6666 10.6667 20.2788 10.6667 17.3333C10.6667 14.3878 13.0545 12 16 12C18.9455 12 21.3333 14.3878 21.3333 17.3333Z" fill="#011F26"/>
</svg>
