<svg width="24" height="25" viewBox="0 0 24 25" fill="none" xmlns="http://www.w3.org/2000/svg">
<path fill-rule="evenodd" clip-rule="evenodd" d="M21 6.65482H3V9.65482C3.58971 9.65482 3.88456 9.65482 4.11952 9.74428C4.48396 9.88304 4.77178 10.1709 4.91054 10.5353C5 10.7703 5 11.0651 5 11.6548V17.5542C5 19.4873 5 20.4538 5.60051 21.0543C6.20103 21.6548 7.16754 21.6548 9.10057 21.6548H14.8994C16.8325 21.6548 17.799 21.6548 18.3995 21.0543C19 20.4538 19 19.4873 19 17.5542V11.6548C19 11.0651 19 10.7703 19.0895 10.5353C19.2282 10.1709 19.516 9.88304 19.8805 9.74428C20.1154 9.65482 20.4103 9.65482 21 9.65482V6.65482ZM10.1834 11.6548C10.1834 11.2774 9.87745 10.9714 9.5 10.9714C9.12256 10.9714 8.81658 11.2774 8.81658 11.6548V16.6548C8.81658 17.0323 9.12256 17.3382 9.5 17.3382C9.87745 17.3382 10.1834 17.0323 10.1834 16.6548V11.6548ZM15.1834 11.6548C15.1834 11.2774 14.8774 10.9714 14.5 10.9714C14.1226 10.9714 13.8166 11.2774 13.8166 11.6548V16.6548C13.8166 17.0323 14.1226 17.3382 14.5 17.3382C14.8774 17.3382 15.1834 17.0323 15.1834 16.6548V11.6548Z" fill="#011F26"/>
<path d="M10.0681 4.02541C10.1821 3.91909 10.4332 3.82514 10.7825 3.75814C11.1318 3.69113 11.5597 3.65482 12 3.65482C12.4403 3.65482 12.8682 3.69113 13.2175 3.75814C13.5668 3.82514 13.8179 3.91909 13.9319 4.02541" stroke="#011F26" stroke-width="1.36686" stroke-linecap="round"/>
</svg>
