<svg width="25" height="25" viewBox="0 0 25 25" fill="none" xmlns="http://www.w3.org/2000/svg">
<path fill-rule="evenodd" clip-rule="evenodd" d="M11.1606 18.8697C15.0266 18.8697 18.1606 15.7357 18.1606 11.8697C18.1606 8.0037 15.0266 4.86969 11.1606 4.86969C7.29465 4.86969 4.16064 8.0037 4.16064 11.8697C4.16064 15.7357 7.29465 18.8697 11.1606 18.8697ZM11.1606 6.86969C10.504 6.86969 9.85386 6.99902 9.24723 7.25029C8.6406 7.50157 8.0894 7.86986 7.62511 8.33416C7.16082 8.79845 6.79252 9.34965 6.54125 9.95627C6.28997 10.5629 6.16064 11.2131 6.16064 11.8697C6.16064 12.422 6.60836 12.8697 7.16064 12.8697C7.71293 12.8697 8.16064 12.422 8.16064 11.8697C8.16064 11.4757 8.23824 11.0856 8.38901 10.7216C8.53977 10.3577 8.76075 10.0269 9.03932 9.74837C9.3179 9.46979 9.64862 9.24882 10.0126 9.09805C10.3766 8.94729 10.7667 8.86969 11.1606 8.86969C11.7129 8.86969 12.1606 8.42197 12.1606 7.86969C12.1606 7.31741 11.7129 6.86969 11.1606 6.86969Z" fill="#011F26"/>
<path d="M20.1606 20.8697L18.1606 18.8697" stroke="#011F26" stroke-width="2" stroke-linecap="round"/>
</svg>
