<svg width="24" height="24" viewBox="0 0 24 24" fill="none" xmlns="http://www.w3.org/2000/svg">
<path fill-rule="evenodd" clip-rule="evenodd" d="M24 12C24 18.6274 18.6274 24 12 24C5.37258 24 0 18.6274 0 12C0 5.37258 5.37258 0 12 0C18.6274 0 24 5.37258 24 12ZM13.3333 6.66667C13.3333 7.40305 12.7364 8 12 8C11.2636 8 10.6667 7.40305 10.6667 6.66667C10.6667 5.93029 11.2636 5.33333 12 5.33333C12.7364 5.33333 13.3333 5.93029 13.3333 6.66667ZM13.3333 18.6667V10.6667H10.6667V18.6667H13.3333Z" fill="#F2A71B"/>
</svg>
