<svg width="49" height="49" viewBox="0 0 49 49" fill="none" xmlns="http://www.w3.org/2000/svg">
<rect x="6.90771" y="12.3932" width="36" height="30" rx="2" stroke="#446269" stroke-width="2"/>
<path d="M6.90771 16.3932C6.90771 14.5076 6.90771 13.5648 7.4935 12.979C8.07929 12.3932 9.0221 12.3932 10.9077 12.3932H38.9077C40.7933 12.3932 41.7361 12.3932 42.3219 12.979C42.9077 13.5648 42.9077 14.5076 42.9077 16.3932V20.3932H6.90771V16.3932Z" fill="#446269"/>
<path d="M14.9077 6.39325L14.9077 12.3932" stroke="#446269" stroke-width="2" stroke-linecap="round"/>
<path d="M34.9077 6.39325L34.9077 12.3932" stroke="#446269" stroke-width="2" stroke-linecap="round"/>
<rect x="14.9077" y="24.3932" width="8" height="4" rx="0.5" fill="#446269"/>
<rect x="14.9077" y="32.3932" width="8" height="4" rx="0.5" fill="#446269"/>
<rect x="26.9077" y="24.3932" width="8" height="4" rx="0.5" fill="#446269"/>
<rect x="26.9077" y="32.3932" width="8" height="4" rx="0.5" fill="#446269"/>
</svg>
