<svg width="20" height="20" viewBox="0 0 20 20" fill="none" xmlns="http://www.w3.org/2000/svg">
<path d="M5.8335 5.9433V4.74138C5.8335 3.31078 5.8335 2.59548 6.29323 2.19676C6.75296 1.79804 7.46107 1.8992 8.87729 2.10151L14.0659 2.84274C15.7033 3.07665 16.522 3.19361 17.0111 3.75754C17.5002 4.32147 17.5002 5.14849 17.5002 6.80253V13.1975C17.5002 14.8516 17.5002 15.6786 17.0111 16.2425C16.522 16.8064 15.7033 16.9234 14.0658 17.1573L8.87728 17.8985C7.46107 18.1008 6.75296 18.202 6.29323 17.8033C5.8335 17.4046 5.8335 16.6893 5.8335 15.2587V14.2217" stroke="#011F26" stroke-width="1.33333"/>
<path d="M13.3335 9.99998L13.8541 9.58352L14.1872 9.99998L13.8541 10.4164L13.3335 9.99998ZM3.3335 10.6666C2.96531 10.6666 2.66683 10.3682 2.66683 9.99998C2.66683 9.63179 2.96531 9.33331 3.3335 9.33331V10.6666ZM10.5207 5.41685L13.8541 9.58352L12.8129 10.4164L9.47958 6.24978L10.5207 5.41685ZM13.8541 10.4164L10.5207 14.5831L9.47958 13.7502L12.8129 9.58352L13.8541 10.4164ZM13.3335 10.6666H3.3335V9.33331H13.3335V10.6666Z" fill="#011F26"/>
</svg>
