<svg width="48" height="49" viewBox="0 0 48 49" fill="none" xmlns="http://www.w3.org/2000/svg">
<path fill-rule="evenodd" clip-rule="evenodd" d="M6.10644 18.3716C6 18.7418 6 19.195 6 20.1015V36.2927C6 38.2257 6 39.1922 6.60051 39.7927C7.20103 40.3932 8.16754 40.3932 10.1006 40.3932H37.8994C39.8325 40.3932 40.799 40.3932 41.3995 39.7927C42 39.1922 42 38.2257 42 36.2927V20.1015C42 19.195 42 18.7418 41.8936 18.3716C41.6335 17.467 40.9263 16.7598 40.0217 16.4997C39.6515 16.3932 39.1983 16.3932 38.2918 16.3932C37.7099 16.3932 37.4189 16.3932 37.1536 16.3402C36.5101 16.2115 35.9344 15.8557 35.5316 15.3377C35.3654 15.1241 35.2353 14.8639 34.9751 14.3434L34.9751 14.3434L32.7556 9.90441C32.3879 9.16915 32.2041 8.80153 31.8738 8.59739C31.5435 8.39325 31.1325 8.39325 30.3105 8.39325H17.6895C16.8675 8.39325 16.4565 8.39325 16.1262 8.59739C15.7959 8.80153 15.612 9.16915 15.2444 9.90441L13.0249 14.3434L13.0249 14.3434C12.7647 14.8639 12.6346 15.1241 12.4684 15.3377C12.0656 15.8557 11.4899 16.2115 10.8464 16.3402C10.5811 16.3932 10.2901 16.3932 9.7082 16.3932C8.80174 16.3932 8.34851 16.3932 7.97831 16.4997C7.07371 16.7598 6.36654 17.467 6.10644 18.3716ZM30.6331 26.3932C30.6331 30.0566 27.6634 33.0264 24 33.0264C20.3366 33.0264 17.3668 30.0566 17.3668 26.3932C17.3668 22.7299 20.3366 19.7601 24 19.7601C27.6634 19.7601 30.6331 22.7299 30.6331 26.3932ZM32 26.3932C32 30.8115 28.4183 34.3932 24 34.3932C19.5817 34.3932 16 30.8115 16 26.3932C16 21.975 19.5817 18.3932 24 18.3932C28.4183 18.3932 32 21.975 32 26.3932Z" fill="#446269"/>
</svg>
