<svg width="49" height="49" viewBox="0 0 49 49" fill="none" xmlns="http://www.w3.org/2000/svg">
<circle cx="24.9077" cy="18.7087" r="8" fill="#446269"/>
<circle cx="34.9077" cy="18.7087" r="6" fill="#446269"/>
<circle cx="14.9077" cy="18.7087" r="6" fill="#446269"/>
<path fill-rule="evenodd" clip-rule="evenodd" d="M36.0449 36.7087H41.803C42.3946 36.7087 42.8496 36.2027 42.7391 35.6215C42.2464 33.031 40.474 26.7087 34.908 26.7087C33.1359 26.7087 31.7482 27.3496 30.6641 28.307C33.6795 30.2634 35.2387 33.6891 36.0449 36.7087Z" fill="#446269"/>
<path fill-rule="evenodd" clip-rule="evenodd" d="M19.1517 28.3069C18.0676 27.3496 16.68 26.7087 14.9078 26.7087C9.34189 26.7087 7.56936 33.0309 7.07669 35.6215C6.96615 36.2027 7.42114 36.7087 8.01276 36.7087H13.7709C14.5771 33.6891 16.1362 30.2634 19.1517 28.3069Z" fill="#446269"/>
<path d="M24.9077 28.7087C33.1394 28.7087 34.595 36.84 34.8524 39.7157C34.9017 40.2658 34.46 40.7087 33.9077 40.7087H15.9077C15.3554 40.7087 14.9138 40.2658 14.963 39.7157C15.2204 36.84 16.676 28.7087 24.9077 28.7087Z" fill="#446269"/>
</svg>
