<svg width="24" height="24" viewBox="0 0 24 24" fill="none" xmlns="http://www.w3.org/2000/svg">
<path fill-rule="evenodd" clip-rule="evenodd" d="M21.0001 6H3.00006V9C3.58977 9 3.88462 9 4.11958 9.08946C4.48402 9.22822 4.77184 9.51604 4.9106 9.88048C5.00006 10.1154 5.00006 10.4103 5.00006 11V16.8994C5.00006 18.8325 5.00006 19.799 5.60058 20.3995C6.20109 21 7.1676 21 9.10063 21H14.8995C16.8325 21 17.799 21 18.3995 20.3995C19.0001 19.799 19.0001 18.8325 19.0001 16.8994V11C19.0001 10.4103 19.0001 10.1154 19.0895 9.88048C19.2283 9.51604 19.5161 9.22822 19.8805 9.08946C20.1155 9 20.4104 9 21.0001 9V6ZM10.1835 11C10.1835 10.6226 9.87751 10.3166 9.50006 10.3166C9.12262 10.3166 8.81664 10.6226 8.81664 11V16C8.81664 16.3774 9.12262 16.6834 9.50006 16.6834C9.87751 16.6834 10.1835 16.3774 10.1835 16V11ZM15.1835 11C15.1835 10.6226 14.8775 10.3166 14.5001 10.3166C14.1226 10.3166 13.8166 10.6226 13.8166 11V16C13.8166 16.3774 14.1226 16.6834 14.5001 16.6834C14.8775 16.6834 15.1835 16.3774 15.1835 16V11Z" fill="#011F26"/>
<path d="M10.0681 3.37059C10.1821 3.26427 10.4332 3.17033 10.7825 3.10332C11.1318 3.03632 11.5597 3 12 3C12.4403 3 12.8682 3.03632 13.2175 3.10332C13.5668 3.17033 13.8179 3.26427 13.9319 3.37059" stroke="#011F26" stroke-width="1.36686" stroke-linecap="round"/>
</svg>
