<svg width="32" height="19" viewBox="0 0 32 19" fill="none" xmlns="http://www.w3.org/2000/svg">
<path fill-rule="evenodd" clip-rule="evenodd" d="M4.59729 18.7615C8.24081 15.1181 11.8843 11.4746 15.5277 7.83117C15.8167 7.54217 16.3947 7.54217 16.6838 7.83117L27.6142 18.7615C27.9321 19.0795 28.4523 19.0795 28.7702 18.7615L31.0673 16.4646C31.3853 16.1466 31.3853 15.6264 31.0673 15.3085L16.6838 0.925024C16.3658 0.607105 15.8456 0.607105 15.5277 0.925024L1.14425 15.3085C0.826267 15.6265 0.826267 16.1467 1.14425 16.4646L3.44122 18.7615C3.75908 19.0794 4.27937 19.0795 4.59729 18.7615Z" fill="#B1C9EA"/>
<path fill-rule="evenodd" clip-rule="evenodd" d="M23.0094 15.3087L16.6834 8.98271C16.3655 8.66479 15.8453 8.66479 15.5274 8.98271L9.20133 15.3087C8.88341 15.6267 8.88341 16.1468 9.20133 16.4648L11.4984 18.7618C11.8163 19.0797 12.3365 19.0798 12.6544 18.7618C13.6121 17.8042 14.5697 16.8465 15.5274 15.8889C15.8164 15.5999 16.3944 15.5999 16.6834 15.8889L19.5563 18.7618C19.8742 19.0797 20.3944 19.0798 20.7124 18.7618L23.0093 16.4648C23.3273 16.1468 23.3273 15.6267 23.0093 15.3087H23.0094Z" fill="#316DB3"/>
</svg>
